<svg width="10" height="11" viewBox="0 0 10 11" fill="none" xmlns="http://www.w3.org/2000/svg">
<path d="M4.78539 4.18473V5.22922C4.78539 5.39532 4.87923 5.54715 5.02779 5.62143L5.66239 5.93873M9.17039 5.50023C9.17039 7.922 7.20716 9.88523 4.78539 9.88523C2.36362 9.88523 0.400391 7.922 0.400391 5.50023C0.400391 3.07846 2.36362 1.11523 4.78539 1.11523C7.20716 1.11523 9.17039 3.07846 9.17039 5.50023ZM7.85489 5.50023C7.85489 7.19547 6.48063 8.56973 4.78539 8.56973C3.09015 8.56973 1.71589 7.19547 1.71589 5.50023C1.71589 3.805 3.09015 2.43073 4.78539 2.43073C6.48063 2.43073 7.85489 3.805 7.85489 5.50023Z" stroke="black" stroke-width="0.647372" stroke-linecap="round"/>
</svg>
