<svg width="93" height="93" viewBox="0 0 93 93" fill="none" xmlns="http://www.w3.org/2000/svg">
<path fill-rule="evenodd" clip-rule="evenodd" d="M46.2356 0.157227C33.7204 0.157227 32.1537 0.209456 27.2386 0.433738C22.3327 0.658019 18.9812 1.4384 16.0505 2.57824C12.9786 3.73344 10.1923 5.54612 7.88836 7.8934C5.54514 10.195 3.73157 12.9797 2.57388 16.0536C1.44033 18.9846 0.656979 22.3396 0.432726 27.2461C0.211545 32.1588 0.15625 33.7226 0.15625 46.2424C0.15625 58.7623 0.208473 60.3261 0.432726 65.2418C0.656979 70.1484 1.43726 73.5003 2.57695 76.4313C3.73201 79.5037 5.54446 82.2903 7.89143 84.5946C10.1928 86.938 12.9771 88.7518 16.0505 89.9097C18.9812 91.0465 22.3327 91.8269 27.2386 92.0511C32.1537 92.2754 33.7204 92.3277 46.2356 92.3277C58.7507 92.3277 60.3174 92.2754 65.2326 92.0511C70.1385 91.8269 73.49 91.0465 76.4206 89.9066C79.4926 88.7514 82.2789 86.9388 84.5828 84.5915C86.926 82.2899 88.7396 79.5052 89.8973 76.4313C91.0339 73.5003 91.8142 70.1484 92.0384 65.2418C92.2627 60.3261 92.3149 58.7592 92.3149 46.2424C92.3149 33.7257 92.2627 32.1588 92.0384 27.243C91.8142 22.3365 91.0339 18.9846 89.8942 16.0536C88.7374 12.9783 86.9237 10.1925 84.5798 7.89033C82.2784 5.54681 79.4941 3.733 76.4206 2.57516C73.49 1.44147 70.1354 0.658019 65.2295 0.433738C60.3174 0.212529 58.7538 0.157227 46.2356 0.157227Z" fill="black"/>
<path fill-rule="evenodd" clip-rule="evenodd" d="M46.2316 61.6159C44.2126 61.6159 42.2132 61.2181 40.3478 60.4454C38.4824 59.6726 36.7875 58.5399 35.3598 57.112C33.9321 55.6841 32.7995 53.989 32.0269 52.1233C31.2542 50.2577 30.8565 48.2581 30.8565 46.2388C30.8565 44.2194 31.2542 42.2198 32.0269 40.3542C32.7995 38.4886 33.9321 36.7934 35.3598 35.3655C36.7875 33.9376 38.4824 32.805 40.3478 32.0322C42.2132 31.2594 44.2126 30.8617 46.2316 30.8617C50.3094 30.8617 54.2201 32.4818 57.1035 35.3655C59.9869 38.2493 61.6068 42.1605 61.6068 46.2388C61.6068 50.317 59.9869 54.2283 57.1035 57.112C54.2201 59.9958 50.3094 61.6159 46.2316 61.6159ZM46.2316 22.551C39.9501 22.551 33.9257 25.0466 29.484 29.489C25.0422 33.9313 22.5469 39.9564 22.5469 46.2388C22.5469 52.5212 25.0422 58.5462 29.484 62.9886C33.9257 67.4309 39.9501 69.9266 46.2316 69.9266C52.5132 69.9266 58.5376 67.4309 62.9793 62.9886C67.4211 58.5462 69.9164 52.5212 69.9164 46.2388C69.9164 39.9564 67.4211 33.9313 62.9793 29.489C58.5376 25.0466 52.5132 22.551 46.2316 22.551ZM76.8068 22.1208C76.8068 23.6059 76.217 25.0301 75.167 26.0802C74.1171 27.1303 72.693 27.7202 71.2082 27.7202C69.7233 27.7202 68.2993 27.1303 67.2493 26.0802C66.1994 25.0301 65.6095 23.6059 65.6095 22.1208C65.6095 20.6358 66.1994 19.2116 67.2493 18.1615C68.2993 17.1114 69.7233 16.5215 71.2082 16.5215C72.693 16.5215 74.1171 17.1114 75.167 18.1615C76.217 19.2116 76.8068 20.6358 76.8068 22.1208Z" fill="white"/>
</svg>
