<svg width="247" height="55" viewBox="0 0 247 55" fill="none" xmlns="http://www.w3.org/2000/svg">
<path d="M0 41.934L10.5194 35.8996C12.6594 40.8089 16.3979 43.238 21.7092 43.238C26.5048 43.238 28.9542 41.8061 28.9542 38.9424C28.9542 37.357 28.1807 36.1553 26.5822 35.3115C25.061 34.4165 22.1733 33.3426 17.8933 32.2176C13.4071 31.0158 10.339 29.6606 7.06452 27.2315C3.97057 24.7001 2.21733 20.9414 2.21733 16.0832C2.21733 11.1739 3.97057 7.31288 7.47705 4.37239C11.0351 1.43189 15.2377 0 20.1107 0C28.8769 0 35.7351 4.16783 39.6283 11.941L29.341 17.8987C27.433 13.9098 24.7516 11.7875 20.1107 11.7875C16.4495 11.7875 14.3869 13.603 14.3869 15.802C14.3869 17.0804 15.0057 18.2311 16.2175 19.2027C17.5066 20.1743 20.1107 21.2483 23.9781 22.3733L28.9284 23.9586C30.0629 24.3422 31.5841 25.007 33.3373 26.0042C35.1679 26.8991 36.5344 27.8963 37.4626 28.9447C39.3705 30.9902 41.1238 34.4677 41.1238 38.7634C41.1238 43.8261 39.2932 47.7638 35.632 50.7043C31.9708 53.5681 27.1752 55 21.2967 55C10.4421 55 3.04238 50.0139 0 41.934Z" fill="black"/>
<path d="M82.2221 1.04688V12.681H68.5056V53.9502H56.3103V12.681H42.5938V1.04688H82.2221Z" fill="black"/>
<path d="M98.0547 42.3161H119.377V53.9502H85.8594V1.04688H118.99V12.681H98.0289V21.4513H117.082V32.932H98.0289V42.3161H98.0547Z" fill="black"/>
<path d="M146.938 1.04688C152.198 1.04688 156.607 2.7856 160.19 6.33976C163.774 9.89392 165.605 14.1129 165.605 19.1756C165.605 24.2384 163.774 28.4574 160.19 32.0115C156.607 35.5657 152.198 37.3044 146.938 37.3044H138.945V53.9246H126.75V1.04688H146.938ZM146.938 26.0027C150.677 26.0027 153.41 23.0622 153.41 19.2012C153.41 15.3402 150.677 12.3997 146.938 12.3997H138.945V26.0027H146.938Z" fill="black"/>
<path d="M190.305 1.04688C195.565 1.04688 199.974 2.7856 203.558 6.33976C207.141 9.89392 208.972 14.1129 208.972 19.1756C208.972 24.2384 207.141 28.4574 203.558 32.0115C199.974 35.5657 195.565 37.3044 190.305 37.3044H182.313V53.9246H170.117V1.04688H190.305ZM190.305 26.0027C194.044 26.0027 196.777 23.0622 196.777 19.2012C196.777 15.3402 194.044 12.3997 190.305 12.3997H182.313V26.0027H190.305Z" fill="black"/>
<path d="M225.676 42.3161H246.998V53.9502H213.48V1.04688H246.612V12.681H225.65V21.4513H244.704V32.932H225.65V42.3161H225.676Z" fill="black"/>
</svg>
