<svg width="296" height="360" viewBox="0 0 296 360" fill="none" xmlns="http://www.w3.org/2000/svg">
<rect width="296" height="360" rx="10" fill="white"/>
<path fill-rule="evenodd" clip-rule="evenodd" d="M67.5 24C61.389 24 60.624 24.0255 58.224 24.135C55.8285 24.2445 54.192 24.6255 52.761 25.182C51.261 25.746 49.9005 26.631 48.7755 27.777C47.6313 28.9007 46.7458 30.2602 46.1805 31.761C45.627 33.192 45.2445 34.83 45.135 37.2255C45.027 39.624 45 40.3875 45 46.5C45 52.6125 45.0255 53.376 45.135 55.776C45.2445 58.1715 45.6255 59.808 46.182 61.239C46.746 62.739 47.631 64.0995 48.777 65.2245C49.9007 66.3686 51.2603 67.2542 52.761 67.8195C54.192 68.3745 55.8285 68.7555 58.224 68.865C60.624 68.9745 61.389 69 67.5 69C73.611 69 74.376 68.9745 76.776 68.865C79.1715 68.7555 80.808 68.3745 82.239 67.818C83.739 67.254 85.0995 66.369 86.2245 65.223C87.3687 64.0993 88.2542 62.7398 88.8195 61.239C89.3745 59.808 89.7555 58.1715 89.865 55.776C89.9745 53.376 90 52.611 90 46.5C90 40.389 89.9745 39.624 89.865 37.224C89.7555 34.8285 89.3745 33.192 88.818 31.761C88.2531 30.2596 87.3675 28.8995 86.223 27.7755C85.0993 26.6313 83.7398 25.7458 82.239 25.1805C80.808 24.627 79.17 24.2445 76.7745 24.135C74.376 24.027 73.6125 24 67.5 24Z" fill="black"/>
<path fill-rule="evenodd" clip-rule="evenodd" d="M67.4986 54.0055C66.5127 54.0055 65.5364 53.8113 64.6256 53.434C63.7147 53.0568 62.8871 52.5038 62.19 51.8066C61.4929 51.1095 60.9399 50.2819 60.5626 49.371C60.1853 48.4602 59.9911 47.4839 59.9911 46.498C59.9911 45.5121 60.1853 44.5359 60.5626 43.625C60.9399 42.7142 61.4929 41.8865 62.19 41.1894C62.8871 40.4923 63.7147 39.9393 64.6256 39.562C65.5364 39.1847 66.5127 38.9905 67.4986 38.9905C69.4897 38.9905 71.3993 39.7815 72.8072 41.1894C74.2151 42.5973 75.0061 44.5069 75.0061 46.498C75.0061 48.4891 74.2151 50.3987 72.8072 51.8066C71.3993 53.2145 69.4897 54.0055 67.4986 54.0055ZM67.4986 34.933C64.4314 34.933 61.4898 36.1515 59.3209 38.3203C57.152 40.4892 55.9336 43.4308 55.9336 46.498C55.9336 49.5652 57.152 52.5068 59.3209 54.6757C61.4898 56.8446 64.4314 58.063 67.4986 58.063C70.5658 58.063 73.5074 56.8446 75.6763 54.6757C77.8451 52.5068 79.0636 49.5652 79.0636 46.498C79.0636 43.4308 77.8451 40.4892 75.6763 38.3203C73.5074 36.1515 70.5658 34.933 67.4986 34.933ZM82.4281 34.723C82.4281 35.448 82.1401 36.1434 81.6274 36.6561C81.1147 37.1687 80.4194 37.4568 79.6943 37.4568C78.9693 37.4568 78.274 37.1687 77.7613 36.6561C77.2486 36.1434 76.9606 35.448 76.9606 34.723C76.9606 33.998 77.2486 33.3026 77.7613 32.79C78.274 32.2773 78.9693 31.9893 79.6943 31.9893C80.4194 31.9893 81.1147 32.2773 81.6274 32.79C82.1401 33.3026 82.4281 33.998 82.4281 34.723Z" fill="white"/>
<g clip-path="url(#clip0_2710_3577)">
<path d="M183 210C183 198.686 183 193.029 186.515 189.515C190.029 186 195.686 186 207 186H209C220.314 186 225.971 186 229.485 189.515C233 193.029 233 198.686 233 210V212C233 223.314 233 228.971 229.485 232.485C225.971 236 220.314 236 209 236H207C195.686 236 190.029 236 186.515 232.485C183 228.971 183 223.314 183 212V210Z" fill="black"/>
<path d="M209.604 222.021C198.208 222.021 191.708 214.208 191.438 201.208H197.146C197.333 210.75 201.542 214.792 204.875 215.625V201.208H210.25V209.438C213.542 209.083 217 205.333 218.166 201.208H223.541C222.646 206.292 218.896 210.042 216.229 211.583C218.896 212.833 223.167 216.104 224.792 222.021H218.875C217.604 218.063 214.438 215 210.25 214.583V222.021H209.604Z" fill="white"/>
</g>
<path d="M115 164.152C115 150.26 103.808 139 90 139C76.1917 139 65 150.26 65 164.152C65 176.708 74.14 187.113 86.0933 189V171.423H79.7467V164.15H86.0933V158.61C86.0933 152.307 89.825 148.823 95.5367 148.823C98.27 148.823 101.133 149.315 101.133 149.315V155.505H97.9783C94.8733 155.505 93.9067 157.445 93.9067 159.435V164.152H100.84L99.7317 171.422H93.9067V189C105.86 187.113 115 176.708 115 164.152Z" fill="black"/>
<path fill-rule="evenodd" clip-rule="evenodd" d="M136.558 298.418C138.708 299.045 140.409 300.889 140.987 303.221C142.046 307.466 142.078 316.27 142.078 316.27C142.078 316.27 142.078 325.109 141.019 329.32C140.441 331.651 138.741 333.496 136.59 334.122C132.707 335.271 117.078 335.271 117.078 335.271C117.078 335.271 101.449 335.271 97.5659 334.122C95.4157 333.496 93.7148 331.651 93.1372 329.32C92.0781 325.074 92.0781 316.27 92.0781 316.27C92.0781 316.27 92.0781 307.466 93.1051 303.255C93.6827 300.924 95.3836 299.08 97.5338 298.453C101.417 297.305 117.046 297.27 117.046 297.27C117.046 297.27 132.675 297.27 136.558 298.418ZM125.037 316.27L112.072 324.413V308.127L125.037 316.27Z" fill="black"/>
<path fill-rule="evenodd" clip-rule="evenodd" d="M253.934 84.0166C253.934 97.8237 242.741 109.017 228.934 109.017C215.126 109.017 203.934 97.8237 203.934 84.0166C203.934 70.2095 215.126 59.0166 228.934 59.0166C242.741 59.0166 253.934 70.2095 253.934 84.0166ZM229.829 77.4727C227.398 78.4841 222.538 80.5775 215.25 83.7527C214.067 84.2233 213.447 84.6838 213.39 85.1339C213.295 85.8948 214.248 86.1944 215.545 86.6023C215.721 86.6578 215.904 86.7153 216.092 86.7762C217.368 87.1912 219.085 87.6766 219.978 87.6959C220.788 87.7134 221.691 87.3796 222.689 86.6944C229.498 82.0979 233.014 79.7746 233.234 79.7245C233.39 79.6891 233.606 79.6447 233.752 79.7746C233.898 79.9046 233.884 80.1506 233.868 80.2166C233.774 80.619 230.034 84.096 228.098 85.8953C227.495 86.4563 227.067 86.8542 226.98 86.9451C226.784 87.1486 226.584 87.3412 226.392 87.5262C225.206 88.6694 224.317 89.5267 226.441 90.9266C227.462 91.5994 228.279 92.1557 229.094 92.7107C229.984 93.3168 230.872 93.9214 232.02 94.6743C232.313 94.8661 232.592 95.0654 232.865 95.2594C233.9 95.9978 234.831 96.6613 235.981 96.5555C236.649 96.494 237.339 95.8658 237.689 93.9924C238.517 89.5649 240.145 79.9717 240.521 76.0187C240.554 75.6723 240.513 75.2291 240.48 75.0345C240.446 74.8399 240.377 74.5627 240.124 74.3575C239.824 74.1144 239.362 74.0632 239.155 74.0668C238.215 74.0834 236.772 74.585 229.829 77.4727Z" fill="black"/>
<defs>
<clipPath id="clip0_2710_3577">
<rect width="50" height="50" fill="white" transform="translate(183 186)"/>
</clipPath>
</defs>
</svg>
