<svg width="103" height="104" viewBox="0 0 103 104" fill="none" xmlns="http://www.w3.org/2000/svg">
<path fill-rule="evenodd" clip-rule="evenodd" d="M102.491 52.0837C102.491 80.3639 79.6524 103.29 51.4798 103.29C23.3072 103.29 0.46875 80.3639 0.46875 52.0837C0.46875 23.8035 23.3072 0.87793 51.4798 0.87793C79.6524 0.87793 102.491 23.8035 102.491 52.0837ZM53.3077 38.6804C48.3461 40.7519 38.4299 45.0396 23.5592 51.5432C21.1444 52.5072 19.8794 53.4502 19.7643 54.3723C19.5697 55.9306 21.5137 56.5443 24.161 57.3799C24.5211 57.4935 24.8942 57.6113 25.2768 57.7361C27.8813 58.586 31.3849 59.5802 33.2062 59.6197C34.8584 59.6555 36.7023 58.9718 38.7382 57.5685C52.6324 48.1537 59.8046 43.3951 60.2549 43.2925C60.5726 43.2201 61.0128 43.1291 61.3111 43.3952C61.6093 43.6613 61.58 44.1653 61.5484 44.3005C61.3558 45.1247 53.7247 52.2463 49.7756 55.9318C48.5445 57.0808 47.6712 57.8957 47.4927 58.0819C47.0928 58.4988 46.6852 58.8932 46.2935 59.2723C43.8738 61.6138 42.0593 63.3697 46.3939 66.237C48.477 67.615 50.1438 68.7544 51.8067 69.8912C53.6228 71.1327 55.4342 72.3709 57.7779 73.9131C58.375 74.306 58.9453 74.7141 59.5007 75.1116C61.6142 76.6241 63.513 77.9829 65.8588 77.7662C67.2219 77.6403 68.6299 76.3537 69.3449 72.5164C71.0348 63.4478 74.3565 43.7989 75.1242 35.7021C75.1915 34.9927 75.1069 34.0848 75.0389 33.6863C74.971 33.2877 74.829 32.7199 74.3129 32.2996C73.7018 31.8017 72.7582 31.6968 72.3363 31.7042C70.4176 31.7381 67.474 32.7656 53.3077 38.6804Z" fill="black"/>
</svg>
