<svg width="103" height="103" viewBox="0 0 103 103" fill="none" xmlns="http://www.w3.org/2000/svg">
<g clip-path="url(#clip0_3034_1998)">
<path d="M0.375 49.5295C0.375 26.3348 0.375 14.7375 7.58066 7.53183C14.7863 0.326172 26.3836 0.326172 49.5783 0.326172H53.6786C76.8734 0.326172 88.4706 0.326172 95.6764 7.53183C102.882 14.7375 102.882 26.3348 102.882 49.5295V53.6298C102.882 76.8246 102.882 88.4217 95.6764 95.6275C88.4706 102.833 76.8734 102.833 53.6786 102.833H49.5783C26.3836 102.833 14.7863 102.833 7.58066 95.6275C0.375 88.4217 0.375 76.8246 0.375 53.6298V49.5295Z" fill="black"/>
<path d="M54.9178 74.1739C31.5548 74.1739 18.2291 58.1572 17.6738 31.5054H29.3767C29.7611 51.0671 38.3886 59.3531 45.2224 61.0615V31.5054H56.2423V48.3763C62.9907 47.6502 70.0799 39.9622 72.4717 31.5054H83.4914C81.6548 41.9269 73.9668 49.6149 68.4998 52.7756C73.9668 55.3382 82.723 62.0439 86.0545 74.1739H73.9241C71.3187 66.0588 64.8272 59.7802 56.2423 58.926V74.1739H54.9178Z" fill="white"/>
</g>
<defs>
<clipPath id="clip0_3034_1998">
<rect width="102.507" height="102.507" fill="white" transform="translate(0.375 0.326172)"/>
</clipPath>
</defs>
</svg>
