<svg width="103" height="79" viewBox="0 0 103 79" fill="none" xmlns="http://www.w3.org/2000/svg">
<path fill-rule="evenodd" clip-rule="evenodd" d="M91.6458 3.12067C96.0331 4.40364 99.5037 8.18132 100.682 12.9568C102.843 21.6525 102.909 39.6855 102.909 39.6855C102.909 39.6855 102.909 57.7897 100.748 66.4141C99.5692 71.1897 96.0986 74.9673 91.7113 76.2503C83.7878 78.6024 51.8978 78.6024 51.8978 78.6024C51.8978 78.6024 20.0077 78.6024 12.0843 76.2503C7.69692 74.9673 4.22634 71.1897 3.04765 66.4141C0.886719 57.7185 0.886719 39.6855 0.886719 39.6855C0.886719 39.6855 0.886719 21.6525 2.98216 13.0281C4.16085 8.25258 7.63144 4.47494 12.0188 3.19197C19.9422 0.839814 51.8323 0.768555 51.8323 0.768555C51.8323 0.768555 83.7224 0.768555 91.6458 3.12067ZM68.1375 39.6855L41.6824 56.3642V23.0068L68.1375 39.6855Z" fill="black"/>
</svg>
